<svg xmlns="http://www.w3.org/2000/svg" xmlns:xlink="http://www.w3.org/1999/xlink">
  <symbol id="logo" width="40" height="32" viewBox="0 0 118 94">
    <title>Bootstrap</title>
    <path fill-rule="evenodd" clip-rule="evenodd" d="M24.509 0c-6.733 0-11.715 5.893-11.492 12.284.214 6.14-.064 14.092-2.066 20.577C8.943 39.365 5.547 43.485 0 44.014v5.972c5.547.529 8.943 4.649 10.951 11.153 2.002 6.485 2.28 14.437 2.066 20.577C12.794 88.106 17.776 94 24.51 94H93.5c6.733 0 11.714-5.893 11.491-12.284-.214-6.14.064-14.092 2.066-20.577 2.009-6.504 5.396-10.624 10.943-11.153v-5.972c-5.547-.529-8.934-4.649-10.943-11.153-2.002-6.484-2.28-14.437-2.066-20.577C105.214 5.894 100.233 0 93.5 0H24.508zM80 57.863C80 66.663 73.436 72 62.543 72H44a2 2 0 01-2-2V24a2 2 0 012-2h18.437c9.083 0 15.044 4.92 15.044 12.474 0 5.302-4.01 10.049-9.119 10.88v.277C75.317 46.394 80 51.21 80 57.863zM60.521 28.34H49.948v14.934h8.905c6.884 0 10.68-2.772 10.68-7.727 0-4.643-3.264-7.207-9.012-7.207zM49.948 49.2v16.458H60.91c7.167 0 10.964-2.876 10.964-8.281 0-5.406-3.903-8.178-11.425-8.178H49.948z" fill="currentColor"/>
  </symbol>
  <symbol id="tips" viewBox="0 0 32 32">
    <g fill="none" fill-rule="evenodd">
      <path d="M0 0h32v32H0z"/>
      <path d="M7.933 4.06c2.533-2.311 5.802-3.37 9.21-2.98 5.423.618 9.78 5.084 10.36 10.619l.033.372c.297 3.958-1.3 7.777-4.318 10.277a1.406 1.406 0 0 0-.516 1.085v3.991c0 1.972-1.573 3.576-3.507 3.576h-6.818c-1.934 0-3.507-1.604-3.507-3.576v-3.992c0-.418-.185-.811-.509-1.079C5.59 20.061 4 16.66 4 13.021 4 9.605 5.433 6.339 7.933 4.06ZM21.46 28.02H10.114c.264 1.043 1.197 1.788 2.263 1.788h6.818c1.067 0 2-.745 2.265-1.788Zm.073-1.987H10.04v.795h11.494v-.795Zm-5.762-23.84c-2.642 0-5.083.953-7.06 2.755a10.941 10.941 0 0 0-3.542 8.073c0 3.277 1.432 6.34 3.929 8.407.598.495.941 1.225.941 2.004v1.41h11.494v-1.41c0-.778.346-1.51.948-2.01 2.803-2.321 4.246-5.91 3.86-9.597-.522-4.983-4.446-9.004-9.329-9.561-.414-.048-.83-.07-1.241-.07Zm.015 4.769c1.045 0 2.033.605 2.612 1.59.129-.174.271-.326.426-.456a2.44 2.44 0 0 1 1.65-.638c1.472 0 2.715 1.41 2.715 3.08 0 1.447-.891 2.698-2.13 3.007v7.92a.59.59 0 0 1-.585.595h-9.376a.591.591 0 0 1-.584-.596v-7.919c-1.239-.31-2.13-1.56-2.13-3.008 0-1.669 1.243-3.079 2.714-3.079.798 0 1.564.406 2.076 1.094.58-.985 1.568-1.59 2.612-1.59Zm4.103 12.615h-8.206v1.291h8.206v-1.291ZM15.786 8.154c-.7 0-1.354.458-1.708 1.195a.977.977 0 0 1-.838.576c-.34.025-.702-.176-.893-.499-.292-.485-.759-.775-1.249-.775-.823 0-1.546.881-1.546 1.886 0 1.041.694 1.888 1.546 1.888a.59.59 0 0 1 .585.596v5.364h8.206v-5.364a.59.59 0 0 1 .585-.596c.853 0 1.546-.847 1.546-1.888 0-1.005-.722-1.886-1.546-1.886-.327 0-.635.121-.892.352a1.687 1.687 0 0 0-.356.424c-.192.321-.55.52-.896.498a.977.977 0 0 1-.836-.577c-.354-.737-1.008-1.194-1.708-1.194Zm-1.46 4.27a.59.59 0 0 1 .584.597V16a.591.591 0 0 1-.585.596.591.591 0 0 1-.584-.596v-2.98a.59.59 0 0 1 .584-.596Zm2.921 0a.59.59 0 0 1 .585.597V16a.591.591 0 0 1-.585.596.591.591 0 0 1-.584-.596v-2.98a.59.59 0 0 1 .584-.596Z" fill="#6DCFF6" fill-rule="nonzero"/>
    </g>
  </symbol>
  <symbol id="story" viewBox="0 0 32 32">
    <g fill="none" fill-rule="evenodd">
      <path d="M0 0h32v32H0z"/>
      <path d="M6.497 4c.23.006 1.43.06 3.134.64 1.08.368 2.148.873 3.174 1.502a18.689 18.689 0 0 1 3.166 2.462l.029.028.029-.028a18.691 18.691 0 0 1 3.166-2.462 15.905 15.905 0 0 1 3.175-1.501c1.704-.581 2.904-.635 3.133-.641h.037c.32 0 .58.256.58.57v3.64l.031.007c1.26.338 2.031.696 2.063.71a.572.572 0 0 1 .331.516v2.371h1.873c.155 0 .301.06.41.167.11.108.171.251.171.404v16.044c0 .315-.26.571-.581.571H1.58a.577.577 0 0 1-.58-.57V12.384c0-.315.26-.57.581-.57h1.873V9.442c0-.219.13-.421.33-.515.033-.015.807-.374 2.064-.71l.03-.009V4.571c0-.315.262-.571.582-.571h.037Zm-3.043 8.956H2.162V27.86h27.676V12.955h-1.292v11.633c0 .193-.098.37-.262.477a.587.587 0 0 1-.319.093l-.079-.005a.586.586 0 0 1-.151-.041c-.016-.007-1.655-.694-3.9-1.031-2.03-.306-4.988-.38-7.553 1.006a.591.591 0 0 1-.562 0c-2.575-1.39-5.547-1.312-7.587-1.002-2.238.341-3.852 1.02-3.868 1.027a.587.587 0 0 1-.55-.047.566.566 0 0 1-.261-.477V12.955Zm2.424-3.56-.053.015c-.523.153-.932.301-1.183.4l-.026.01v13.944l.055-.018c.728-.242 1.89-.576 3.284-.788 1.403-.214 2.753-.26 4.012-.137.42.04.837.102 1.242.182l.188.037-.155-.11a15.2 15.2 0 0 0-3.757-1.946c-1.538-.54-2.716-.67-2.995-.694l-.055-.004a.577.577 0 0 1-.557-.57V9.394Zm20.244 0v10.32a.575.575 0 0 1-.55.57c-.013 0-1.293.08-3.057.7a15.2 15.2 0 0 0-3.757 1.945l-.155.11.188-.037a12.9 12.9 0 0 1 1.242-.182c1.259-.123 2.61-.077 4.012.137a20.23 20.23 0 0 1 3.284.788l.055.018V9.82l-.026-.01c-.25-.099-.66-.247-1.183-.4l-.053-.015ZM7.04 5.19v14.013l.035.006a14.86 14.86 0 0 1 2.753.683 16.227 16.227 0 0 1 5.52 3.249l.07.062V9.674l-.012-.011c-2.31-2.3-4.59-3.403-6.097-3.924l-.256-.085a11.401 11.401 0 0 0-1.966-.457L7.04 5.19Zm17.918 0-.047.006c-.487.065-1.268.212-2.222.542-1.507.521-3.788 1.625-6.097 3.924l-.012.012v13.529l.07-.062a16.229 16.229 0 0 1 5.52-3.25 14.859 14.859 0 0 1 2.753-.682l.035-.006V5.191ZM9.107 15.006c.064 0 .128.01.19.032 1.526.52 3.008 1.303 4.404 2.33a.565.565 0 0 1 .117.798.58.58 0 0 1-.466.228.583.583 0 0 1-.348-.113c-1.3-.956-2.675-1.684-4.087-2.165a.574.574 0 0 1-.333-.29.557.557 0 0 1-.026-.436.588.588 0 0 1 .549-.384Zm13.785 0a.569.569 0 0 1 .19 1.11c-1.411.481-2.786 1.21-4.086 2.165a.583.583 0 0 1-.348.113.58.58 0 0 1-.466-.228.565.565 0 0 1 .117-.799c1.396-1.026 2.878-1.81 4.404-2.329a.588.588 0 0 1 .19-.031ZM9.107 11.917c.064 0 .128.011.19.033 1.526.52 3.008 1.303 4.404 2.329a.565.565 0 0 1 .117.798.58.58 0 0 1-.466.229.583.583 0 0 1-.348-.114c-1.3-.955-2.675-1.683-4.087-2.164a.574.574 0 0 1-.333-.29.557.557 0 0 1-.026-.436.588.588 0 0 1 .549-.384Zm13.596.033a.585.585 0 0 1 .739.352.569.569 0 0 1-.359.726c-1.412.48-2.787 1.209-4.087 2.164a.583.583 0 0 1-.348.114.58.58 0 0 1-.466-.229.564.564 0 0 1 .117-.798c1.396-1.026 2.878-1.81 4.404-2.33ZM9.107 8.827c.064 0 .128.011.19.032 1.526.52 3.008 1.303 4.404 2.33a.564.564 0 0 1 .117.798.58.58 0 0 1-.466.228.583.583 0 0 1-.348-.113c-1.3-.956-2.675-1.684-4.087-2.165a.574.574 0 0 1-.333-.29.557.557 0 0 1-.026-.436.588.588 0 0 1 .549-.384Zm13.785 0a.569.569 0 0 1 .19 1.11c-1.411.481-2.786 1.21-4.086 2.165a.583.583 0 0 1-.348.113.58.58 0 0 1-.466-.228.565.565 0 0 1 .117-.799c1.396-1.026 2.878-1.81 4.404-2.329a.588.588 0 0 1 .19-.031Z" fill="#6DCFF6" fill-rule="nonzero"/>
    </g>
  </symbol>
  <symbol id="recipes" viewBox="0 0 32 32">
    <g fill="none" fill-rule="evenodd">
      <path d="M0 0h32v32H0z"/>
      <path d="M30.5 3c.276 0 .5.22.5.49v24.475c0 .27-.224.49-.5.49h-18c-.276 0-.5-.22-.5-.49v-3.427H4a.495.495 0 0 1-.5-.489v-11.79C2.083 12.027 1 10.817 1 9.365c0-1.592 1.374-2.937 3-2.937.98 0 1.9.47 2.46 1.257.604-1.073 1.775-1.747 3.04-1.747.951 0 1.85.381 2.5 1.032V3.489c0-.27.224-.489.5-.489h18Zm-.5.979H13v3.197a2.71 2.71 0 0 1 .208-.163A2.958 2.958 0 0 1 15 6.427c1.626 0 3 1.345 3 2.937 0 1.452-1.083 2.662-2.5 2.896v11.789c0 .27-.224.49-.5.49h-2v2.937h17V3.979ZM14.5 22.091h-10v1.468h10v-1.468Zm6-12.727c1.378 0 2.5 1.317 2.5 2.937 0 .933-.362 1.786-.992 2.342L22 21.146a.956.956 0 0 1-.965.945h-1.07a.956.956 0 0 1-.965-.945v-6.513c-.638-.546-1-1.4-1-2.332 0-1.62 1.122-2.937 2.5-2.937Zm7 0c.276 0 .5.219.5.49V12.3c0 .473-.19.902-.5 1.175v7.597a1.03 1.03 0 0 1-1.04 1.018h-.92a1.03 1.03 0 0 1-1.04-1.018v-7.597c-.31-.273-.5-.702-.5-1.175V9.853c0-.27.224-.49.5-.49s.5.22.5.49v2.448c0 .244.11.428.213.48.02.007.03.01.037.01h.25V9.852c0-.27.224-.49.5-.49s.5.22.5.49v2.938h.25a.122.122 0 0 0 .037-.008c.104-.053.213-.237.213-.481V9.853c0-.27.224-.49.5-.49Zm-7 .979c-.827 0-1.5.878-1.5 1.958 0 .646.247 1.25.661 1.614a.954.954 0 0 1 .339.718v6.513l1.035-.034L21 14.633c0-.27.12-.526.339-.718.414-.365.661-.968.661-1.614 0-1.08-.673-1.958-1.5-1.958Zm-11-3.427c-.903 0-1.74.482-2.184 1.258a.972.972 0 0 1-.805.487 1.003 1.003 0 0 1-.872-.418A2.013 2.013 0 0 0 4 7.406c-1.065 0-2 .915-2 1.958 0 1.08.897 1.958 2 1.958.276 0 .5.219.5.49v9.3h10v-9.3c0-.271.224-.49.5-.49 1.103 0 2-.879 2-1.958 0-1.043-.935-1.958-2-1.958-.441 0-.854.135-1.195.392-.175.124-.32.27-.445.446a1.015 1.015 0 0 1-.905.413.968.968 0 0 1-.77-.481A2.518 2.518 0 0 0 9.5 6.916Zm17 6.853h-1v7.304c0 .018.021.039.04.039h.92c.019 0 .04-.02.04-.04V13.77ZM8 15.064c.276 0 .5.22.5.49v2.937c0 .27-.224.49-.5.49s-.5-.22-.5-.49v-2.937c0-.27.224-.49.5-.49Zm3 0c.276 0 .5.22.5.49v2.937c0 .27-.224.49-.5.49s-.5-.22-.5-.49v-2.937c0-.27.224-.49.5-.49Z" fill="#6DCFF6" fill-rule="nonzero"/>
    </g>
  </symbol>
  <symbol id="products" viewBox="0 0 32 32">
    <g fill="none" fill-rule="evenodd">
      <path d="M0 0h32v32H0z"/>
      <path d="M27.976 8c.257 0 .602.134.792.775l3.192 12.046c.031.15.059.28.023.417.003.21.003.41-.068.617l-.1.26-.764 1.894c-.252.593-.795.991-1.352.991H3.287c-.58 0-1.11-.39-1.352-.992l-.86-2.114A3.43 3.43 0 0 1 1 21.247c0-.137.023-.292.07-.472L4.25 8.778c.109-.486.406-.778.794-.778h22.933Zm3.035 13.857H2.008l.012.028.697 1.83c.117.284.352.483.57.483h26.412c.218 0 .453-.2.57-.485l.742-1.856ZM28.135 9.77l-.62 2.016 2.304 9.268h1.313a.254.254 0 0 1-.007-.051L28.135 9.77Zm-1.365 2.496H6.281L4.11 21.023h24.835l-2.175-8.757ZM4.884 9.739l-2.99 11.252h1.314l2.296-9.236-.62-2.016Zm19.136 8.222c.243 0 .44.199.44.444a.442.442 0 0 1-.44.443H8.832a.442.442 0 0 1-.44-.443c0-.245.197-.444.44-.444H24.02Zm0-2.956c.243 0 .44.198.44.443a.442.442 0 0 1-.44.444H8.832a.442.442 0 0 1-.44-.444c0-.245.197-.443.44-.443H24.02Zm3.491-6.171H5.475l.802 2.598h20.432l.801-2.598Z" fill="#6DCFF6" fill-rule="nonzero"/>
    </g>
  </symbol>
  <symbol id="holiday" viewBox="0 0 32 32">
    <g fill="none" fill-rule="evenodd">
      <path d="M0 0h32v32H0z"/>
      <path d="M17.848 2a.601.601 0 0 1 0 1.2h-.924a.324.324 0 0 0-.323.325V4.83a3.388 3.388 0 0 1 2.772 3.315c0 .247-.03.5-.09.755 1.845.506 3.15 1.415 3.604 2.512 2.287.439 3.786 1.629 3.875 3.066A3.378 3.378 0 0 1 30 17.848a3.377 3.377 0 0 1-3.373 3.373 3.33 3.33 0 0 1-1.556-.386l-.93 7.426A1.99 1.99 0 0 1 22.169 30H9.83c-1 0-1.848-.748-1.972-1.74l-.93-7.425a3.34 3.34 0 0 1-1.556.386A3.377 3.377 0 0 1 2 17.848c0-1.815 1.44-3.3 3.238-3.37.09-1.437 1.588-2.627 3.875-3.066.455-1.097 1.758-2.006 3.603-2.512a3.35 3.35 0 0 1-.089-.755A3.388 3.388 0 0 1 15.4 4.83V3.525c0-.841.683-1.525 1.524-1.525h.924Zm4.044 18.523a3.373 3.373 0 0 1-5.892.63 3.396 3.396 0 0 1-2.772 1.454 3.371 3.371 0 0 1-3.12-2.084 2.475 2.475 0 0 1-2.003.034l.946 7.555a.786.786 0 0 0 .78.687h12.338a.787.787 0 0 0 .78-.688l.946-7.554c-.632.27-1.38.26-2.003-.034Zm-11.567 1.821a.604.604 0 0 1 .717.457l.924 4.158a.599.599 0 0 1-.587.731.597.597 0 0 1-.586-.47l-.923-4.16a.598.598 0 0 1 .456-.717Zm11.256-.012.094.012a.602.602 0 0 1 .456.717l-.924 4.159a.604.604 0 0 1-.716.456.602.602 0 0 1-.457-.717l.924-4.159a.604.604 0 0 1 .717-.456l-.094-.012ZM16 22.33c.331 0 .6.27.6.6v4.16a.601.601 0 0 1-1.2 0v-4.16c0-.33.269-.6.6-.6Zm2.38-12.42a11.884 11.884 0 0 0-4.766.001c-1.895.398-3.251 1.247-3.455 2.163a.605.605 0 0 1-.497.464c-1.84.275-3.226 1.168-3.226 2.076 0 .104.019.209.056.313a.602.602 0 0 1-.685.793 2.174 2.174 0 0 0-2.606 2.129c0 1.197.974 2.171 2.172 2.171.603 0 1.166-.247 1.584-.696l.016-.016c.061-.062.115-.126.158-.19a.605.605 0 0 1 .472-.262c.2-.002.375.077.493.224.244.304.599.478.973.478.36 0 .703-.162.942-.444a.6.6 0 0 1 1.057.332 2.16 2.16 0 0 0 2.16 1.96 2.174 2.174 0 0 0 2.171-2.171.601.601 0 0 1 1.202 0c0 1.197.974 2.171 2.171 2.171a2.16 2.16 0 0 0 2.16-1.96.598.598 0 0 1 .418-.517.605.605 0 0 1 .639.185c.239.282.583.444.942.444.373 0 .728-.174.973-.478a.63.63 0 0 1 .49-.224.607.607 0 0 1 .475.263c.042.062.096.126.16.19l.018.022c.427.447.984.69 1.58.69a2.174 2.174 0 0 0 2.172-2.173 2.174 2.174 0 0 0-2.606-2.128.607.607 0 0 1-.575-.196.603.603 0 0 1-.11-.597.909.909 0 0 0 .056-.313c0-.908-1.387-1.8-3.226-2.076a.605.605 0 0 1-.497-.464c-.204-.914-1.553-1.76-3.44-2.16l-.021-.004ZM16 5.973a2.174 2.174 0 0 0-2.116 2.666A13.07 13.07 0 0 1 16 8.469c.718 0 1.43.057 2.116.17A2.174 2.174 0 0 0 16 5.973Z" fill="#6DCFF6" fill-rule="nonzero"/>
    </g>
  </symbol>
  <symbol id="search" viewBox="0 0 0.96 0.96">
    <path d="M.4.16a.24.24 0 1 0 0 .48.24.24 0 0 0 0-.48zM.08.4a.32.32 0 1 1 .573.196l.215.215a.04.04 0 0 1-.057.057L.596.653A.32.32 0 0 1 .08.4z"/>
  </symbol>
  <symbol id="fb" viewBox="0 0 0.96 0.96">
    <path d="M.56.24h.12A.04.04 0 0 0 .72.2V.12A.04.04 0 0 0 .68.08H.56a.2.2 0 0 0-.2.2V.4H.28a.04.04 0 0 0-.04.04v.08a.04.04 0 0 0 .04.04h.08v.28A.04.04 0 0 0 .4.88h.08A.04.04 0 0 0 .52.84V.56h.089a.04.04 0 0 0 .04-.03l.02-.08A.04.04 0 0 0 .629.4H.52V.28A.04.04 0 0 1 .56.24Z" />
  </symbol>
  <symbol id="twitter" viewBox="0 0 0.96 0.96">
    <path d="M.88.232a.34.34 0 0 1-.094.026.165.165 0 0 0 .072-.091.328.328 0 0 1-.104.04.164.164 0 0 0-.28.15.466.466 0 0 1-.338-.172.166.166 0 0 0-.022.083.164.164 0 0 0 .073.136.162.162 0 0 1-.074-.02v.002a.164.164 0 0 0 .132.16.157.157 0 0 1-.044.007A.196.196 0 0 1 .17.55a.164.164 0 0 0 .153.114.329.329 0 0 1-.203.07.317.317 0 0 1-.04-.002.463.463 0 0 0 .252.074A.464.464 0 0 0 .8.338V.317A.337.337 0 0 0 .88.232Z"/>
  </symbol>
  <symbol id="insta" viewBox="0 0 0.96 0.96">
    <path d="M.694.218a.048.048 0 1 0 .048.048.048.048 0 0 0-.048-.048Zm.184.097A.304.304 0 0 0 .86.218.198.198 0 0 0 .814.147.188.188 0 0 0 .743.101.292.292 0 0 0 .646.082C.602.08.589.08.48.08S.358.08.315.082a.292.292 0 0 0-.097.019.191.191 0 0 0-.071.046.188.188 0 0 0-.046.071.292.292 0 0 0-.019.097C.08.358.08.371.08.48s0 .122.002.165a.292.292 0 0 0 .019.097.188.188 0 0 0 .046.071.191.191 0 0 0 .071.046.292.292 0 0 0 .097.019C.358.88.371.88.48.88S.602.88.645.878A.292.292 0 0 0 .742.859.188.188 0 0 0 .813.813.194.194 0 0 0 .859.742.304.304 0 0 0 .877.645C.877.603.879.589.879.48s0-.122-.002-.165ZM.806.64a.224.224 0 0 1-.014.074.122.122 0 0 1-.03.046.128.128 0 0 1-.046.03.224.224 0 0 1-.074.014C.602.806.587.806.482.806s-.12 0-.16-.002A.229.229 0 0 1 .244.792.131.131 0 0 1 .2.762.12.12 0 0 1 .17.716.222.222 0 0 1 .154.64C.154.6.152.585.152.48s0-.12.002-.16A.222.222 0 0 1 .168.244.12.12 0 0 1 .2.2.126.126 0 0 1 .244.168.229.229 0 0 1 .32.154C.36.154.375.152.48.152s.12 0 .16.002a.224.224 0 0 1 .074.014A.122.122 0 0 1 .762.2a.122.122 0 0 1 .03.044.224.224 0 0 1 .014.076c.002.04.002.055.002.16s0 .12-.002.16ZM.48.275A.205.205 0 1 0 .686.48.205.205 0 0 0 .48.275Zm0 .338A.133.133 0 1 1 .613.48.133.133 0 0 1 .48.613Z"/>
  </symbol>
  <symbol id="youtube" viewBox="0 0 0.96 0.96">
    <path d="M.92.388A.34.34 0 0 0 .884.223a.117.117 0 0 0-.069-.04A3.134 3.134 0 0 0 .48.171a3.138 3.138 0 0 0-.334.012.115.115 0 0 0-.058.03C.052.246.048.303.044.351a1.932 1.932 0 0 0 0 .259.382.382 0 0 0 .012.08.126.126 0 0 0 .028.054.114.114 0 0 0 .06.031 1.807 1.807 0 0 0 .26.013c.14.002.263 0 .408-.011A.115.115 0 0 0 .873.746a.1.1 0 0 0 .024-.04A.423.423 0 0 0 .918.57C.92.548.92.412.92.388ZM.39.594V.346L.627.47C.561.507.473.548.39.593Z"/>
  </symbol>
  <symbol id="printrest" viewBox="0 0 32 32">
    <path d="M13.787 21.163C12.946 25.57 11.92 29.794 8.878 32c-.938-6.659 1.378-11.659 2.454-16.968-1.835-3.088.221-9.299 4.088-7.768 4.76 1.882-4.122 11.475 1.84 12.675 6.226 1.25 8.766-10.8 4.906-14.718C16.59-.44 5.933 5.088 7.245 13.192c.318 1.981 2.365 2.581.818 5.315-3.57-.79-4.635-3.606-4.498-7.36C3.786 5.003 9.083.704 14.399.107c6.722-.754 13.03 2.469 13.902 8.79.981 7.138-3.034 14.869-10.222 14.312-1.949-.152-2.765-1.118-4.291-2.046z"/>
  </symbol>
  <symbol id="menu" viewBox="0 0 0.8 0.8">
    <path d="M.76.2H.04C.016.2 0 .184 0 .16S.016.12.04.12h.72C.784.12.8.136.8.16S.784.2.76.2zM.4.44H.04C.016.44 0 .424 0 .4S.016.36.04.36H.4C.424.36.44.376.44.4S.424.44.4.44zm.36.24H.04C.016.68 0 .664 0 .64S.016.6.04.6h.72C.784.6.8.616.8.64S.784.68.76.68z"/>
  </symbol>
  <symbol id="close" viewBox="0 0 0.96 0.96">
    <path d="M.212.212a.04.04 0 0 1 .057 0L.48.423.692.211a.04.04 0 1 1 .057.057L.537.48l.212.212a.04.04 0 0 1-.057.057L.48.537.268.749A.04.04 0 0 1 .211.692L.423.48.212.268a.04.04 0 0 1 0-.057z"/>
  </symbol>
  <symbol id="arrow-down" viewBox="0 0 20 20">
    <path d="m9.293 12.95.707.707L15.657 8l-1.414-1.414L10 10.828 5.757 6.586 4.343 8z"/>
  </symbol>
</svg>